<?xml version="1.0" standalone="no"?>
<!DOCTYPE svg PUBLIC "-//W3C//DTD SVG 20010904//EN"
 "http://www.w3.org/TR/2001/REC-SVG-20010904/DTD/svg10.dtd">
<svg version="1.0" xmlns="http://www.w3.org/2000/svg"
 width="390.000000pt" height="390.000000pt" viewBox="0 0 390.000000 390.000000"
 preserveAspectRatio="xMidYMid meet">
<metadata>
Created by potrace 1.14, written by Peter Selinger 2001-2017
</metadata>
<g transform="translate(0.000000,390.000000) scale(0.100000,-0.100000)"
fill="#000000" stroke="none">
<path d="M1699 3885 c-539 -74 -1017 -360 -1333 -799 -190 -264 -307 -560
-351 -886 -14 -105 -14 -413 0 -510 49 -344 191 -678 402 -945 268 -338 638
-579 1053 -685 292 -75 642 -77 935 -6 765 186 1344 811 1470 1586 8 52 18
158 21 235 30 684 -307 1332 -891 1715 -195 127 -479 239 -715 280 -155 27
-447 35 -591 15z"/>
</g>
</svg>
